<svg xmlns="http://www.w3.org/2000/svg" width="159" height="19" viewBox="0 0 159 19"><g fill="#000" fill-rule="nonzero"><path d="M.1 4h2v14h-2zM16.34 4v14H14.7L6.3 7.56V18h-2V4h1.64l8.4 10.44V4zM30.58 4v14h-1.64l-8.4-10.44V18h-2V4h1.64l8.4 10.44V4zM39.1 18.16a7.83 7.83 0 0 1-3.82-.93A6.87 6.87 0 0 1 31.64 11a6.87 6.87 0 0 1 3.64-6.23 7.83 7.83 0 0 1 3.82-.93c1.4 0 2.67.31 3.8.93A6.82 6.82 0 0 1 46.52 11a6.82 6.82 0 0 1-3.62 6.23c-1.13.62-2.4.93-3.8.93Zm0-1.78a5.5 5.5 0 0 0 2.77-.7 5.14 5.14 0 0 0 1.94-1.93 5.4 5.4 0 0 0 .71-2.75 5.4 5.4 0 0 0-.71-2.75 5.14 5.14 0 0 0-1.94-1.93 5.5 5.5 0 0 0-2.77-.7c-1.03 0-1.96.23-2.79.7a5.1 5.1 0 0 0-1.96 1.93 5.4 5.4 0 0 0-.71 2.75c0 1.01.24 1.93.71 2.75a5.1 5.1 0 0 0 1.96 1.93c.83.47 1.76.7 2.79.7ZM59.3 4l-6.14 14h-1.98L45.02 4h2.16l5.04 11.5L57.3 4z"></path><path d="M69.24 16.26V18H59.08V4h9.88v1.74h-7.88v4.3h7.02v1.7h-7.02v4.52h8.16Zm-3.98-16h2.44l-3.36 2.6h-1.8l2.72-2.6ZM83.28 10.74c.81.23 1.45.64 1.92 1.23.47.6.7 1.34.7 2.25 0 1.21-.46 2.15-1.37 2.8-.91.65-2.24.98-3.99.98h-6.68V4h6.28c1.6 0 2.84.32 3.71.96a3.11 3.11 0 0 1 1.31 2.66 3.32 3.32 0 0 1-1.88 3.12Zm-7.42-5.12v4.48h4.1c1.03 0 1.82-.19 2.37-.57.55-.38.83-.94.83-1.67a1.9 1.9 0 0 0-.83-1.67 4.16 4.16 0 0 0-2.37-.57h-4.1Zm4.6 10.76c1.13 0 1.99-.19 2.56-.56.57-.37.86-.96.86-1.76 0-1.56-1.14-2.34-3.42-2.34h-4.6v4.66h4.6ZM97.16 16.26V18H87V4h9.88v1.74H89v4.3h7.02v1.7H89v4.52z"></path><path d="M102.48 18.16a9.58 9.58 0 0 1-3.05-.49 6.26 6.26 0 0 1-2.31-1.27l.74-1.56c.53.48 1.22.87 2.05 1.17.83.3 1.69.45 2.57.45 1.16 0 2.03-.2 2.6-.59.57-.4.86-.92.86-1.57 0-.48-.16-.87-.47-1.17-.31-.3-.7-.53-1.16-.69a21.3 21.3 0 0 0-1.95-.54 20.1 20.1 0 0 1-2.55-.76 4.22 4.22 0 0 1-1.66-1.17 3.12 3.12 0 0 1-.69-2.13c0-.75.2-1.42.59-2.02.4-.6.99-1.08 1.79-1.44.8-.36 1.8-.54 2.98-.54.83 0 1.64.1 2.44.32.8.21 1.49.52 2.06.92l-.66 1.6a7.24 7.24 0 0 0-3.84-1.14c-1.13 0-1.98.2-2.55.62a1.9 1.9 0 0 0-.85 1.6c0 .48.16.87.48 1.17.32.3.72.53 1.19.7.47.17 1.12.34 1.93.53 1.05.25 1.9.5 2.54.76.64.25 1.19.64 1.65 1.16.46.52.69 1.22.69 2.1 0 .73-.2 1.4-.6 2.01-.4.6-1 1.09-1.82 1.44-.81.35-1.81.53-3 .53ZM114.28 4c1.81 0 3.24.43 4.28 1.3a4.4 4.4 0 0 1 1.56 3.58 4.4 4.4 0 0 1-1.56 3.58c-1.04.87-2.47 1.3-4.28 1.3h-3.46V18h-2V4h5.46Zm-.06 8.02c1.27 0 2.23-.27 2.9-.81.67-.54 1-1.32 1-2.33s-.33-1.79-1-2.33a4.51 4.51 0 0 0-2.9-.81h-3.4v6.28h3.4Z"></path><path d="M127.58 18.16a7.83 7.83 0 0 1-3.82-.93 6.87 6.87 0 0 1-3.64-6.23 6.87 6.87 0 0 1 3.64-6.23 7.83 7.83 0 0 1 3.82-.93c1.4 0 2.67.31 3.8.93A6.82 6.82 0 0 1 135 11a6.82 6.82 0 0 1-3.62 6.23c-1.13.62-2.4.93-3.8.93Zm0-1.78a5.5 5.5 0 0 0 2.77-.7 5.14 5.14 0 0 0 1.94-1.93A5.4 5.4 0 0 0 133 11a5.4 5.4 0 0 0-.71-2.75 5.14 5.14 0 0 0-1.94-1.93 5.5 5.5 0 0 0-2.77-.7c-1.03 0-1.96.23-2.79.7a5.1 5.1 0 0 0-1.96 1.93 5.4 5.4 0 0 0-.71 2.75c0 1.01.24 1.93.71 2.75a5.1 5.1 0 0 0 1.96 1.93c.83.47 1.76.7 2.79.7ZM140.62 11.78l-2.56 2.6V18h-2V4h2v7.82l7.6-7.82h2.28l-5.98 6.3 6.36 7.7h-2.34zM158.6 16.26V18h-10.16V4h9.88v1.74h-7.88v4.3h7.02v1.7h-7.02v4.52z"></path></g></svg>